# xmcd
#
# Track frame offsets:
#	150
#	10939
#	19573
#	29266
#	40591
#	51484
#	61127
#	69519
#	80327
#	92007
#	104461
#	114929
#	125872
#	139251
#	148662
#	160399
#	171063
#	181447
#	194474
#	209160
#	219137
#	232539
#	243948
#	256655
#	266394
#	279241
#	289702
#	300410
#	310173
#	322487
#
# Disc length: 4454 seconds
# Revision: 0
# Processed by: cddbd v1.5.2PL0 Copyright (c) Steve Scherf et al.
# Submitted via: dBpowerAMP V12.0
#
DISCID=a611641e
DTITLE=Various Artist - R&B Spotlight '59
DYEAR=1959
DGENRE=Rhythm and Blues
TTITLE0=Lavern Baker - Tiny Tim
TTITLE1=The Clovers - Love Potion No.9
TTITLE2=Ray Sharpe - Linda Lu
TTITLE3=Chuck Berry - Back In The USA
TTITLE4=Frankie Ford - Alimony
TTITLE5=Bo Diddley - Crackin' Up
TTITLE6=Lavern Baker - So High So Low
TTITLE7=Fats Domino - I Want To Walk You Home
TTITLE8=Little Willie John - Leave My Kitten Alone
TTITLE9=The Coasters - Poison Ivy
TTITLE10=Nat ''King'' Cole - Midnight Flyer
TTITLE11=Phil Phillips with The Twilights - Sea Of Love
TTITLE12=Richard Barrett with The Chantels - Summer's Love
TTITLE13=The Crests - The Angels Listened In
TTITLE14=The Five Satins - Shadows
TTITLE15=Sarah Vaughan - Broken-Hearted Melody
TTITLE16=Dee Clark - Hey Little Girl
TTITLE17=Little Walter - Everything Gonna Be Alright
TTITLE18=Bo Diddley - Say Man
TTITLE19=Ronnie Hawkins - Mary Lou
TTITLE20=Ruth Brown - I Don't Know
TTITLE21=Clyde McPhatter - You Went Back On Your Word
TTITLE22=Paul Gayten - The Hunch
TTITLE23=Sonny Spencer - Gilee
TTITLE24=The Spacemen - The Clouds
TTITLE25=Fats Domino - Be My Guest
TTITLE26=Sarah Vaughan - Smooth Operator
TTITLE27=Lloyd Price - Come Into My Heart
TTITLE28=Nappy Brown - I Cried Like A Baby
TTITLE29=Lightnin' Slim - Rooster Blues
EXTD=
EXTT0=
EXTT1=
EXTT2=
EXTT3=
EXTT4=
EXTT5=
EXTT6=
EXTT7=
EXTT8=
EXTT9=
EXTT10=
EXTT11=
EXTT12=
EXTT13=
EXTT14=
EXTT15=
EXTT16=
EXTT17=
EXTT18=
EXTT19=
EXTT20=
EXTT21=
EXTT22=
EXTT23=
EXTT24=
EXTT25=
EXTT26=
EXTT27=
EXTT28=
EXTT29=
PLAYORDER=
